# xmcd
#
# Track frame offsets:
#	150
#	13705
#	26782
#	42999
#	55260
#	67842
#	80642
#	93935
#	107001
#	125881
#	139817
#	153561
#	167885
#	185925
#	198785
#	212072
#	224888
#	238649
#	249492
#	267279
#
# Disc length: 3837 seconds
#
# Revision: 1
# Processed by: cddbd v1.5.2PL0 Copyright (c) Steve Scherf et al.
# Submitted via: audiograbber 1.83.01
#
DISCID=300efb14
DTITLE=BJ Thomas - 20 Greatest Hits
DYEAR=2005
DGENRE=Country
TTITLE0=Raindrops Keep Fallin' On My Head
TTITLE1=No Love At All
TTITLE2=Mighty Clouds Of Joy
TTITLE3=Everybody's Out Of Town
TTITLE4=Hooked On A Feeling
TTITLE5=I Can't Help It If I'm Still In Love With You
TTITLE6=I Just Can't Help Believing
TTITLE7=Most Of All
TTITLE8=Rock And Roll Lullaby
TTITLE9=Billy And Sue
TTITLE10=The Eyes Of A New York Woman
TTITLE11=I'm So Lonesome I Could Cry
TTITLE12=Long Ago Tomorrow
TTITLE13=Mama
TTITLE14=Tomorrow Never Comes
TTITLE15=It's Only Love
TTITLE16=Bring Back The Time
TTITLE17=Pass The Apple Eve
TTITLE18=That's What Friends Are For
TTITLE19=Happier Than The Morning Sun
EXTD=
EXTT0=
EXTT1=
EXTT2=
EXTT3=
EXTT4=
EXTT5=
EXTT6=
EXTT7=
EXTT8=
EXTT9=
EXTT10=
EXTT11=
EXTT12=
EXTT13=
EXTT14=
EXTT15=
EXTT16=
EXTT17=
EXTT18=
EXTT19=
PLAYORDER=
